####
#
# OBJ File Generated by Meshlab
#
####
# Object SpaceFanMarker1.obj
#
# Vertices: 160
# Faces: 316
#
####
mtllib ./SpaceFanMarker1.obj.mtl

vn 0.003527 0.567321 0.823489
v -40.250000 38.877998 129.227005
vn 0.002416 0.562627 0.826707
v -40.251301 38.843800 129.250000
vn 0.030528 0.570765 0.820546
v -40.196400 38.841400 129.225998
vn -0.021250 0.563861 0.825597
v -40.300201 38.845600 129.227005
vn 0.681447 0.603697 0.413738
v -39.262001 39.171398 128.235992
vn 0.614469 0.592477 0.520961
v -39.274101 38.800800 128.643997
vn 0.710169 0.597918 0.371691
v -38.982601 38.786499 128.235992
vn 0.098364 0.852434 0.513499
v -40.222000 39.741600 128.238998
vn -0.478671 0.537856 0.693963
v -41.236401 38.879799 128.710999
vn -0.461076 0.636292 0.618499
v -41.219200 39.386799 128.248001
vn -0.455232 0.528186 0.716787
v -41.815300 38.900002 128.255005
vn 0.765006 0.636506 -0.098105
v -39.257301 39.451401 127.251999
vn 0.832006 0.540812 -0.123649
v -38.792999 38.772598 127.252998
vn 0.240342 0.970658 -0.007610
v -40.221001 39.930698 127.255997
vn -0.162741 0.934955 0.315237
v -41.206200 39.875599 127.263000
vn -0.406293 0.522039 0.749934
v -42.222900 38.914501 127.962997
vn -0.278006 0.714357 0.642189
v -42.196602 39.686100 127.271004
vn -0.459385 0.518748 0.721018
v -43.194099 39.322701 127.279999
vn -0.433438 0.490204 0.756195
v -43.207001 38.951401 127.577003
vn -0.526274 0.487069 0.696993
v -43.614700 38.965801 127.285004
vn 0.668037 0.314977 -0.674178
v -39.287102 38.871300 126.273003
vn 0.671498 0.307932 -0.673994
v -39.232601 38.784000 126.274002
vn 0.451798 0.664665 -0.595062
v -40.236099 39.717999 126.275002
vn 0.172613 0.947091 -0.270599
v -41.210400 39.934502 126.279999
vn -0.008198 0.991883 0.126891
v -42.190498 40.003300 126.287003
vn -0.379035 0.828500 0.412213
v -43.175598 39.948200 126.293999
vn -0.691560 0.489091 0.531540
v -44.194401 38.985401 126.712997
vn -0.724645 0.523254 0.448436
v -44.182201 39.355999 126.304001
vn -0.768172 0.500078 0.399794
v -44.491402 38.994701 126.308998
vn 0.663872 0.296472 -0.686570
v -39.290798 38.785999 126.227997
vn 0.535600 0.214454 -0.816788
v -40.276600 38.821400 125.594002
vn 0.525927 0.189510 -0.829148
v -40.735901 38.837898 125.301003
vn 0.486430 0.364562 -0.794028
v -41.239399 39.372299 125.302002
vn 0.368158 0.786531 -0.495811
v -42.202400 39.869801 125.305000
vn -0.173427 0.979573 -0.101780
v -43.178600 40.036598 125.310997
vn -0.776768 0.629785 0.001525
v -44.177601 39.636002 125.320000
vn -0.857298 0.514813 0.002787
v -44.694599 38.996498 125.328003
vn 0.538963 0.215233 -0.814367
v -41.261902 38.857201 125.028999
vn 0.639798 0.198181 -0.742551
v -42.145500 38.888100 124.329002
vn 0.640250 0.234398 -0.731531
v -42.241402 39.060200 124.328003
vn 0.081641 0.700086 -0.709376
v -43.194801 39.798401 124.330002
vn -0.656978 0.517968 -0.547804
v -44.195900 39.343899 124.339996
vn -0.712463 0.491364 -0.500957
v -44.505001 38.982601 124.345001
vn 0.640964 0.202149 -0.740474
v -42.248798 38.891701 124.237000
vn 0.169852 0.300351 -0.938584
v -43.234200 38.927299 123.650002
vn -0.584942 0.437399 -0.683026
v -44.212898 38.969002 124.038002
vn 0.410776 0.358822 0.838159
v -38.360100 36.818699 130.207993
vn 0.384557 0.320149 0.865806
v -38.368999 36.573601 130.341995
vn 0.466638 0.306713 0.829564
v -38.156898 36.564301 130.207993
vn -0.006277 0.295121 0.955439
v -39.332802 37.073700 130.214005
vn -0.065461 0.220764 0.973128
v -39.349899 36.613400 130.414993
vn -0.297701 0.078361 0.951438
v -40.332500 36.654499 130.223007
vn -0.297856 0.077982 0.951420
v -40.332600 36.651501 130.223999
vn -0.298369 0.077894 0.951267
v -40.335098 36.651600 130.223007
vn 0.771404 0.362905 0.522720
v -37.377300 36.980900 129.218002
vn 0.751753 0.252728 0.609095
v -37.393101 36.529499 129.548996
vn 0.840305 0.192039 0.506960
v -37.062599 36.514198 129.218994
vn 0.601058 0.649982 0.465029
v -38.334000 37.634399 129.220993
vn 0.446413 0.564893 0.693983
v -39.291199 38.278000 129.223999
vn -0.537563 0.270027 0.798819
v -41.272499 37.888699 129.240005
vn -0.534133 0.026788 0.844976
v -41.317402 36.687801 129.735001
vn -0.473699 0.024595 0.880343
v -42.059200 36.714401 129.251999
vn 0.916586 0.367122 -0.158404
v -37.378700 37.109402 128.235001
vn 0.991644 0.062590 -0.112806
v -36.895000 36.501202 128.235992
vn 0.834792 0.546406 0.067552
v -38.332298 37.840099 128.238007
vn -0.481228 0.373667 0.792964
v -42.245602 38.299198 128.261993
vn -0.459745 0.019073 0.887846
v -42.303398 36.722900 129.057007
vn -0.448159 0.174530 0.876751
v -43.261799 37.466801 128.274002
vn -0.375566 -0.019978 0.926580
v -43.287201 36.759998 128.705994
vn -0.629937 0.007019 0.776615
v -44.269501 36.848000 128.285004
vn -0.625743 -0.007198 0.779996
v -44.271301 36.796902 128.317993
vn -0.635899 -0.006401 0.771746
v -44.311401 36.798302 128.285004
vn 0.770789 0.008287 -0.637036
v -37.407200 36.561298 127.257004
vn 0.771922 -0.004081 -0.635705
v -37.375999 36.514198 127.257004
vn 0.881827 0.294062 -0.368658
v -38.343899 37.715401 127.255997
vn -0.698177 0.245499 0.672517
v -44.235600 37.858200 127.295998
vn -0.782483 -0.002382 0.622667
v -45.259399 36.830299 127.348999
vn -0.787644 0.011724 0.616019
v -45.257599 36.881302 127.308998
vn -0.790993 -0.002561 0.611820
v -45.292702 36.831299 127.309998
vn 0.761687 -0.003780 -0.647934
v -37.409199 36.515301 127.223999
vn 0.548207 -0.061202 -0.834101
v -38.395599 36.550201 126.508003
vn 0.474755 -0.090967 -0.875404
v -38.663300 36.559399 126.282997
vn -0.952573 0.150303 0.264600
v -45.241600 37.445599 126.322998
vn -0.977536 -0.033840 0.208035
v -45.648499 36.839298 126.330002
vn 0.431980 -0.121806 -0.893620
v -39.380501 36.586300 125.995003
vn 0.438825 -0.146009 -0.886631
v -40.364799 36.623001 125.581001
vn 0.454333 -0.187795 -0.870813
v -40.888401 36.642300 125.316002
vn -0.984050 0.177802 0.005730
v -45.241001 37.625599 125.339996
vn -0.998981 -0.044565 0.007195
v -45.700199 36.835098 125.348000
vn 0.501440 -0.203451 -0.840932
v -41.349899 36.659000 125.039001
vn 0.640660 -0.251398 -0.725503
v -42.239399 36.690201 124.343002
vn -0.877400 0.133366 -0.460849
v -45.255199 37.433601 124.359001
vn -0.927594 -0.035456 -0.371904
v -45.662102 36.827301 124.365997
vn 0.642350 -0.252725 -0.723545
v -42.336700 36.693501 124.250999
vn 0.358719 -0.249704 -0.899427
v -43.323002 36.728401 123.547997
vn -0.127226 -0.165783 -0.977921
v -44.304600 36.767502 123.516998
vn -0.637155 -0.061430 -0.768284
v -45.283001 36.809399 123.946999
vn 0.192613 -0.226467 0.954784
v -38.455299 34.376900 130.593994
vn 0.640471 -0.237765 0.730250
v -37.883099 34.351601 130.220001
vn -0.446403 -0.253048 0.858307
v -39.438301 34.414799 130.362000
vn -0.298530 0.077317 0.951263
v -40.332802 36.646599 130.223007
vn -0.477099 -0.274497 0.834882
v -39.652302 34.422501 130.231995
vn 0.924261 -0.354393 0.141945
v -37.481602 34.330799 129.485001
vn 0.918427 -0.394761 -0.025615
v -37.391201 34.325600 129.235001
vn -0.583422 -0.378670 0.718490
v -40.424702 34.449600 129.638000
vn -0.615555 -0.201552 0.761885
v -41.368900 35.480801 129.255005
vn -0.607858 -0.420210 0.673745
v -40.887001 34.465698 129.257996
vn 0.891223 -0.428345 -0.149137
v -37.484798 34.327999 129.024002
vn 0.873385 -0.228953 -0.429858
v -37.444901 35.453999 128.246002
vn 0.663217 -0.492308 -0.563716
v -37.980900 34.342899 128.255997
vn -0.622526 -0.456877 0.635393
v -41.412300 34.483398 128.738998
vn -0.658762 -0.343971 0.669116
v -42.365501 35.303501 128.281006
vn -0.641607 -0.515134 0.568310
v -41.906200 34.500198 128.283005
vn -0.545108 -0.237908 0.803901
v -43.312599 36.196899 128.281998
vn -0.633028 -0.022342 0.773806
v -44.273399 36.750900 128.285004
vn 0.766994 -0.015720 -0.641462
v -37.411098 36.464199 127.257004
vn 0.589931 -0.490430 -0.641451
v -38.474899 34.359600 127.768997
vn 0.668196 -0.320946 -0.671199
v -38.443298 35.232399 127.272003
vn 0.549789 -0.511808 -0.660140
v -38.969002 34.376202 127.280998
vn -0.802097 -0.595831 0.040318
v -42.403301 34.514198 127.359001
vn -0.766258 -0.584002 0.267935
v -43.341900 35.630299 127.304001
vn -0.800575 -0.599162 0.009217
v -42.432800 34.514999 127.304001
vn -0.700515 -0.477389 0.530451
v -44.301899 36.202801 127.306999
vn -0.786961 -0.018585 0.616723
v -45.261501 36.784199 127.309998
vn 0.504261 -0.490961 -0.710407
v -39.462299 34.393600 126.901001
vn 0.464418 -0.239264 -0.852684
v -39.416901 35.627899 126.293999
vn 0.328103 -0.452503 -0.829210
v -40.301701 34.423401 126.307999
vn -0.590176 -0.648885 -0.480250
v -42.390099 35.017700 126.319000
vn -0.380463 -0.612587 -0.692810
v -41.785198 34.482800 126.318001
vn -0.797261 -0.603349 -0.018560
v -42.403999 34.513500 127.249001
vn -0.538863 -0.842252 -0.015390
v -43.350498 35.579700 126.321999
vn -0.538476 -0.800014 0.264617
v -44.320400 35.905201 126.325996
vn -0.923224 -0.293021 0.248590
v -45.284100 36.383099 126.330002
vn 0.303226 -0.449071 -0.840469
v -40.448299 34.428699 126.230003
vn -0.189590 -0.560331 -0.806278
v -41.430401 34.467400 126.125000
vn 0.377339 -0.286070 -0.880783
v -41.374100 36.008701 125.322998
vn 0.154874 -0.693636 -0.703479
v -42.372002 35.632500 125.332001
vn -0.114950 -0.979455 -0.165695
v -43.354599 35.640301 125.338997
vn -0.431560 -0.902044 0.008515
v -44.330502 35.814602 125.345001
vn -0.938520 -0.345118 0.008617
v -45.293800 36.306599 125.348999
vn 0.637838 -0.282336 -0.716553
v -42.342800 36.526100 124.345001
vn 0.296166 -0.737789 -0.606591
v -43.354900 35.796799 124.356003
vn -0.314862 -0.749336 -0.582544
v -44.334000 35.893200 124.362000
vn -0.824387 -0.264482 -0.500435
v -45.297699 36.371101 124.365997
vn 0.230692 -0.486968 0.842403
v -38.482899 33.750000 130.227997
vn -0.457913 -0.310407 0.833045
v -39.449402 34.159199 130.231995
vn 0.904371 -0.423544 -0.052181
v -37.489899 34.167400 129.235992
vn 0.440896 -0.893175 -0.088594
v -38.503601 33.397099 129.248001
vn -0.304185 -0.867023 0.394642
v -39.486301 33.403301 129.255005
vn -0.582629 -0.505841 0.636135
v -40.447800 33.937500 129.257996
vn 0.581784 -0.563573 -0.586441
v -38.491901 33.852798 128.263000
vn 0.247770 -0.926685 -0.282605
v -39.493099 33.397301 128.272995
vn -0.310535 -0.907279 0.283572
v -40.474400 33.436600 128.279007
vn -0.601920 -0.570513 0.558755
v -41.435902 33.970798 128.283005
vn 0.513517 -0.590501 -0.622582
v -39.480099 33.886101 127.287003
vn 0.164733 -0.908702 -0.383567
v -40.481201 33.430599 127.296997
vn -0.507443 -0.858377 -0.075433
v -41.458500 33.570599 127.303001
vn -0.801774 -0.597556 0.009216
v -42.404999 34.479500 127.304001
vn 0.301687 -0.473247 -0.827661
v -40.454300 34.267399 126.309998
vn -0.260484 -0.595405 -0.760027
v -41.441601 34.156898 126.317001
# 160 vertices, 0 vertices normals


usemtl material_0
vt 0.479204 0.611962
vt 0.481395 0.606488
vt 0.484929 0.608712
f 3/1/3 1/2/1 2/3/2
vt 0.486479 0.603592
f 2/3/2 1/2/1 4/4/4
vt 0.811927 0.621857
f 2/3/2 4/4/4 61/5/61
vt 0.640768 0.559432
f 61/5/61 4/4/4 60/6/60
vt 0.852711 0.537451
f 61/5/61 60/6/60 62/7/62
vt 0.512824 0.501762
f 62/7/62 60/6/60 9/8/9
vt 0.867585 0.507859
f 62/7/62 9/8/9 67/9/67
vt 0.520322 0.431926
f 67/9/67 9/8/9 11/10/11
vt 0.619416 0.418506
f 67/9/67 11/10/11 66/11/66
vt 0.529345 0.384209
f 66/11/66 11/10/11 16/12/16
vt 0.585910 0.285022
f 66/11/66 16/12/16 19/13/19
vt 0.415702 0.325045
f 19/13/19 16/12/16 17/14/17
vt 0.523445 0.258386
f 19/13/19 17/14/17 18/15/18
vt 0.378769 0.188772
f 18/15/18 17/14/17 26/16/26
vt 0.519494 0.129259
f 18/15/18 26/16/26 28/17/28
vt 0.331578 0.070448
f 28/17/28 26/16/26 36/18/36
vt 0.461051 0.051490
f 28/17/28 36/18/36 37/19/37
vt 0.030792 0.017527
f 37/19/37 36/18/36 43/20/43
vt 0.838747 0.055389
f 37/19/37 43/20/43 88/21/88
vt 0.583600 0.011366
f 88/21/88 43/20/43 92/22/92
vt 0.647170 0.000000
f 88/21/88 92/22/92 93/23/93
vt 0.556002 0.009717
f 93/23/93 92/22/92 97/24/97
vt 0.620798 0.044650
f 93/23/93 97/24/97 144/25/144
vt 0.557512 0.137625
f 144/25/144 97/24/97 143/26/143
vt 0.665090 0.190147
f 144/25/144 143/26/143 139/27/139
vt 0.589075 0.273615
f 139/27/139 143/26/143 138/28/138
vt 0.712582 0.325569
f 139/27/139 138/28/138 131/29/131
vt 0.635405 0.421207
f 131/29/131 138/28/138 128/30/128
vt 0.841536 0.374031
f 131/29/131 128/30/128 121/31/121
vt 0.740800 0.484642
f 121/31/121 128/30/128 122/32/122
vt 0.744870 0.489795
f 121/31/121 122/32/122 120/33/120
vt 0.738342 0.488073
f 120/33/120 122/32/122 158/34/158
vt 0.816141 0.576491
f 120/33/120 158/34/158 113/35/113
vt 0.771580 0.632087
f 113/35/113 158/34/158 154/36/154
vt 0.842712 0.639434
f 113/35/113 154/36/154 111/37/111
vt 0.877120 0.708087
f 111/37/111 154/36/154 107/38/107
vt 0.990433 0.634812
f 111/37/111 107/38/107 106/39/106
vt 0.901548 0.764656
f 106/39/106 107/38/107 105/40/105
f 106/39/106 105/40/105 61/5/61
vt 0.760023 0.726374
f 61/5/61 105/40/105 101/41/101
vt 0.759483 0.726020
f 61/5/61 101/41/101 54/42/54
vt 0.759347 0.726272
f 54/42/54 101/41/101 53/43/53
vt 0.758924 0.726128
f 54/42/54 53/43/53 52/44/52
vt 0.624032 0.791055
f 52/44/52 53/43/53 50/45/50
vt 0.433178 0.703296
f 52/44/52 50/45/50 59/46/59
vt 0.551190 0.877027
f 59/46/59 50/45/50 47/47/47
vt 0.364364 0.801467
f 59/46/59 47/47/47 58/48/58
vt 0.263653 0.899937
f 58/48/58 47/47/47 55/49/55
vt 0.228509 0.745016
f 58/48/58 55/49/55 65/50/65
vt 0.122219 0.845878
f 65/50/65 55/49/55 63/51/63
vt 0.097962 0.698848
f 65/50/65 63/51/63 75/52/75
vt 0.042531 0.813038
f 75/52/75 63/51/63 73/53/73
vt 0.050738 0.812787
f 75/52/75 73/53/73 80/54/80
vt 0.048236 0.817136
f 80/54/80 73/53/73 74/55/74
vt 0.055318 0.816046
f 80/54/80 74/55/74 116/56/116
vt 0.186308 0.897741
f 116/56/116 74/55/74 109/57/109
vt 0.313383 0.776608
f 116/56/116 109/57/109 118/58/118
vt 0.468445 0.828978
f 118/58/118 109/57/109 117/59/117
vt 0.468058 0.764413
f 118/58/118 117/59/117 119/60/119
vt 0.560760 0.869851
f 119/60/119 117/59/117 151/61/151
vt 0.541122 0.740716
f 119/60/119 151/61/151 155/62/155
vt 0.650698 0.806095
f 155/62/155 151/61/151 152/63/152
vt 0.620871 0.676968
f 155/62/155 152/63/152 156/64/156
vt 0.709512 0.726811
f 156/64/156 152/63/152 153/65/153
vt 0.674763 0.594561
f 156/64/156 153/65/153 157/66/157
f 157/66/157 153/65/153 154/36/154
f 157/66/157 154/36/154 158/34/158
vt 0.298727 0.660712
vt 0.319436 0.625277
vt 0.360133 0.657549
f 7/67/7 5/68/5 6/69/6
f 6/69/6 5/68/5 3/1/3
f 6/69/6 3/1/3 59/46/59
f 59/46/59 3/1/3 2/3/2
f 59/46/59 2/3/2 52/44/52
f 52/44/52 2/3/2 54/42/54
f 3/1/3 5/68/5 1/2/1
vt 0.373782 0.529391
f 1/2/1 5/68/5 8/70/8
vt 0.446464 0.462462
f 1/2/1 8/70/8 10/71/10
vt 0.343496 0.397133
f 10/71/10 8/70/8 15/72/15
f 10/71/10 15/72/15 17/14/17
vt 0.304901 0.265083
f 17/14/17 15/72/15 25/73/25
f 17/14/17 25/73/25 26/16/26
vt 0.252244 0.135956
f 26/16/26 25/73/25 35/74/35
f 26/16/26 35/74/35 36/18/36
vt 0.097965 0.029570
f 36/18/36 35/74/35 42/75/42
f 36/18/36 42/75/42 43/20/43
vt 0.026963 0.025806
f 43/20/43 42/75/42 46/76/46
f 43/20/43 46/76/46 92/22/92
f 92/22/92 46/76/46 97/24/97
f 1/2/1 9/8/9 4/4/4
f 4/4/4 9/8/9 60/6/60
f 1/2/1 10/71/10 9/8/9
f 9/8/9 10/71/10 11/10/11
vt 0.234387 0.566474
f 7/67/7 12/77/12 5/68/5
vt 0.289626 0.473451
f 5/68/5 12/77/12 14/78/14
f 5/68/5 14/78/14 8/70/8
f 8/70/8 14/78/14 15/72/15
vt 0.187999 0.626750
f 7/67/7 13/79/13 12/77/12
vt 0.120826 0.534574
f 12/77/12 13/79/13 21/80/21
vt 0.197268 0.430064
f 12/77/12 21/80/21 23/81/23
vt 0.111310 0.534927
f 23/81/23 21/80/21 30/82/30
vt 0.080544 0.423153
f 23/81/23 30/82/30 31/83/31
vt 0.213749 0.490614
f 31/83/31 30/82/30 86/84/86
vt 0.064329 0.371196
f 31/83/31 86/84/86 32/85/32
vt 0.245611 0.434846
f 32/85/32 86/84/86 87/86/87
vt 0.272923 0.383513
f 32/85/32 87/86/87 90/87/90
vt 0.373956 0.418130
f 90/87/90 87/86/87 136/88/136
vt 0.315605 0.276436
f 90/87/90 136/88/136 91/89/91
vt 0.342713 0.273901
f 91/89/91 136/88/136 141/90/141
vt 0.319102 0.263926
f 91/89/91 141/90/141 94/91/94
vt 0.357588 0.148651
f 94/91/94 141/90/141 95/92/95
vt 0.007812 0.195087
f 94/91/94 95/92/95 44/93/44
vt 0.054855 0.085707
f 44/93/44 95/92/95 45/94/45
vt 0.113698 0.093352
f 44/93/44 45/94/45 41/95/41
f 41/95/41 45/94/45 42/75/42
f 41/95/41 42/75/42 35/74/35
f 11/10/11 10/71/10 16/12/16
f 16/12/16 10/71/10 17/14/17
vt 0.601367 0.237302
f 19/13/19 18/15/18 20/96/20
vt 0.614875 0.161573
f 20/96/20 18/15/18 27/97/27
vt 0.837879 0.226210
f 20/96/20 27/97/27 76/98/76
vt 0.613260 0.117207
f 76/98/76 27/97/27 29/99/29
vt 0.983882 0.111050
f 76/98/76 29/99/29 83/100/83
f 83/100/83 29/99/29 37/19/37
f 83/100/83 37/19/37 88/21/88
vt 0.113678 0.541955
f 13/79/13 22/101/22 21/80/21
f 21/80/21 22/101/22 30/82/30
f 12/77/12 23/81/23 14/78/14
vt 0.247443 0.345229
f 14/78/14 23/81/23 24/102/24
f 14/78/14 24/102/24 15/72/15
f 15/72/15 24/102/24 25/73/25
f 18/15/18 28/17/28 27/97/27
f 27/97/27 28/17/28 29/99/29
vt 0.120662 0.312832
f 31/83/31 32/85/32 33/103/33
vt 0.049619 0.314883
f 33/103/33 32/85/32 38/104/38
vt 0.019133 0.194505
f 33/103/33 38/104/38 40/105/40
vt 0.000883 0.208085
f 40/105/40 38/104/38 39/106/39
f 40/105/40 39/106/39 44/93/44
f 44/93/44 39/106/39 94/91/94
f 31/83/31 33/103/33 23/81/23
f 23/81/23 33/103/33 24/102/24
vt 0.189685 0.219192
f 25/73/25 24/102/24 34/107/34
f 34/107/34 24/102/24 33/103/33
f 34/107/34 33/103/33 40/105/40
f 25/73/25 34/107/34 35/74/35
f 35/74/35 34/107/34 41/95/41
f 37/19/37 29/99/29 28/17/28
f 34/107/34 40/105/40 41/95/41
f 41/95/41 40/105/40 44/93/44
f 42/75/42 45/94/45 46/76/46
vt 0.427621 0.067484
f 46/76/46 45/94/45 96/108/96
f 46/76/46 96/108/96 97/24/97
f 97/24/97 96/108/96 143/26/143
vt 0.556667 0.901925
vt 0.597454 0.891451
f 49/109/49 47/47/47 48/110/48
vt 0.696662 0.815558
f 48/110/48 47/47/47 51/111/51
vt 0.951100 0.880994
f 48/110/48 51/111/51 100/112/100
f 100/112/100 51/111/51 53/43/53
f 100/112/100 53/43/53 101/41/101
f 47/47/47 50/45/50 51/111/51
f 51/111/51 50/45/50 53/43/53
vt 0.202664 0.941034
vt 0.315665 0.930794
f 57/113/57 55/49/55 56/114/56
f 56/114/56 55/49/55 49/109/49
vt 0.872617 1.000000
f 56/114/56 49/109/49 99/115/99
f 99/115/99 49/109/49 48/110/48
vt 0.957248 0.972365
f 99/115/99 48/110/48 98/116/98
f 98/116/98 48/110/48 100/112/100
vt 0.911182 0.882293
f 98/116/98 100/112/100 146/117/146
vt 0.942328 0.857114
f 146/117/146 100/112/100 102/118/102
vt 0.825094 0.761163
f 146/117/146 102/118/102 150/119/150
f 150/119/150 102/118/102 105/40/105
f 150/119/150 105/40/105 107/38/107
f 49/109/49 55/49/55 47/47/47
f 2/3/2 61/5/61 54/42/54
f 55/49/55 57/113/57 63/51/63
vt 0.037371 0.905286
f 63/51/63 57/113/57 64/120/64
f 63/51/63 64/120/64 73/53/73
f 73/53/73 64/120/64 74/55/74
f 7/67/7 6/69/6 65/50/65
f 65/50/65 6/69/6 59/46/59
f 65/50/65 59/46/59 58/48/58
vt 0.906815 0.410453
vt 0.823956 0.366539
f 69/121/69 66/11/66 68/122/68
f 68/122/68 66/11/66 19/13/19
f 68/122/68 19/13/19 20/96/20
f 66/11/66 69/121/69 67/9/67
vt 0.997886 0.406302
f 67/9/67 69/121/69 114/123/114
vt 0.889943 0.512308
f 67/9/67 114/123/114 112/124/112
f 112/124/112 114/123/114 121/31/121
f 112/124/112 121/31/121 120/33/120
vt 0.939582 0.311164
vt 0.935699 0.307898
f 71/125/71 68/122/68 70/126/70
f 70/126/70 68/122/68 76/98/76
vt 0.999329 0.178771
f 70/126/70 76/98/76 78/127/78
f 78/127/78 76/98/76 83/100/83
vt 0.915183 0.099685
f 78/127/78 83/100/83 84/128/84
vt 0.794862 0.046201
f 84/128/84 83/100/83 89/129/89
vt 0.742492 0.096721
f 84/128/84 89/129/89 140/130/140
f 140/130/140 89/129/89 144/25/144
f 140/130/140 144/25/144 139/27/139
f 68/122/68 71/125/71 69/121/69
vt 0.946262 0.310906
f 69/121/69 71/125/71 115/131/115
f 69/121/69 115/131/115 114/123/114
vt 0.922032 0.278066
f 114/123/114 115/131/115 123/132/123
f 114/123/114 123/132/123 121/31/121
vt 0.788469 0.237309
f 121/31/121 123/132/123 132/133/132
f 121/31/121 132/133/132 131/29/131
f 131/29/131 132/133/132 139/27/139
vt 0.941669 0.306256
f 71/125/71 70/126/70 72/134/72
vt 0.998199 0.182387
f 72/134/72 70/126/70 77/135/77
vt 0.990719 0.181829
f 72/134/72 77/135/77 124/136/124
vt 0.995569 0.177732
f 124/136/124 77/135/77 79/137/79
vt 0.864138 0.144335
f 124/136/124 79/137/79 133/138/133
f 133/138/133 79/137/79 84/128/84
f 133/138/133 84/128/84 140/130/140
f 13/79/13 7/67/7 75/52/75
f 75/52/75 7/67/7 65/50/65
f 20/96/20 76/98/76 68/122/68
f 70/126/70 78/127/78 77/135/77
f 77/135/77 78/127/78 79/137/79
vt 0.107965 0.696849
f 80/54/80 81/139/81 75/52/75
f 75/52/75 81/139/81 13/79/13
vt 0.124729 0.663846
f 13/79/13 81/139/81 82/140/82
vt 0.476609 0.705328
f 82/140/82 81/139/81 125/141/125
vt 0.302409 0.636155
f 82/140/82 125/141/125 126/142/126
vt 0.492407 0.607485
f 126/142/126 125/141/125 127/143/127
vt 0.496795 0.591683
f 126/142/126 127/143/127 134/144/134
vt 0.511903 0.600751
f 134/144/134 127/143/127 159/145/159
vt 0.557280 0.506759
f 134/144/134 159/145/159 135/146/135
vt 0.583649 0.526160
f 135/146/135 159/145/159 160/147/160
vt 0.599411 0.487673
f 135/146/135 160/147/160 129/148/129
vt 0.733597 0.484217
f 129/148/129 160/147/160 130/149/130
f 129/148/129 130/149/130 128/30/128
f 128/30/128 130/149/130 122/32/122
f 13/79/13 82/140/82 22/101/22
vt 0.158829 0.591222
f 22/101/22 82/140/82 85/150/85
f 22/101/22 85/150/85 30/82/30
f 30/82/30 85/150/85 86/84/86
f 84/128/84 79/137/79 78/127/78
f 83/100/83 88/21/88 89/129/89
f 89/129/89 88/21/88 93/23/93
f 89/129/89 93/23/93 144/25/144
f 32/85/32 90/87/90 38/104/38
f 38/104/38 90/87/90 39/106/39
f 90/87/90 91/89/91 39/106/39
f 39/106/39 91/89/91 94/91/94
f 45/94/45 95/92/95 96/108/96
vt 0.486929 0.218687
f 96/108/96 95/92/95 142/151/142
f 96/108/96 142/151/142 143/26/143
f 143/26/143 142/151/142 138/28/138
f 100/112/100 101/41/101 102/118/102
f 102/118/102 101/41/101 105/40/105
vt 0.543084 0.990454
vt 0.622157 0.995671
f 104/152/104 56/114/56 103/153/103
f 103/153/103 56/114/56 99/115/99
vt 0.839056 0.973143
f 103/153/103 99/115/99 145/154/145
f 145/154/145 99/115/99 98/116/98
f 145/154/145 98/116/98 146/117/146
f 56/114/56 104/152/104 57/113/57
f 57/113/57 104/152/104 64/120/64
f 61/5/61 62/7/62 106/39/106
f 106/39/106 62/7/62 67/9/67
f 106/39/106 67/9/67 111/37/111
f 111/37/111 67/9/67 112/124/112
f 111/37/111 112/124/112 113/35/113
f 113/35/113 112/124/112 120/33/120
vt 0.515858 0.972272
f 64/120/64 108/155/108 109/57/109
vt 0.468861 0.893489
f 109/57/109 108/155/108 110/156/110
f 109/57/109 110/156/110 117/59/117
f 117/59/117 110/156/110 151/61/151
f 64/120/64 104/152/104 108/155/108
vt 0.573156 0.988042
f 108/155/108 104/152/104 147/157/147
f 108/155/108 147/157/147 110/156/110
f 110/156/110 147/157/147 151/61/151
f 71/125/71 72/134/72 115/131/115
f 115/131/115 72/134/72 124/136/124
f 115/131/115 124/136/124 123/132/123
f 123/132/123 124/136/124 133/138/133
f 123/132/123 133/138/133 132/133/132
f 132/133/132 133/138/133 140/130/140
f 132/133/132 140/130/140 139/27/139
f 64/120/64 109/57/109 74/55/74
f 80/54/80 116/56/116 81/139/81
f 81/139/81 116/56/116 118/58/118
f 81/139/81 118/58/118 119/60/119
f 81/139/81 119/60/119 125/141/125
f 125/141/125 119/60/119 155/62/155
f 125/141/125 155/62/155 127/143/127
f 127/143/127 155/62/155 159/145/159
f 82/140/82 126/142/126 85/150/85
f 85/150/85 126/142/126 134/144/134
f 85/150/85 134/144/134 86/84/86
f 86/84/86 134/144/134 135/146/135
f 86/84/86 135/146/135 87/86/87
f 87/86/87 135/146/135 136/88/136
f 135/146/135 129/148/129 136/88/136
f 136/88/136 129/148/129 128/30/128
vt 0.502052 0.351877
f 136/88/136 128/30/128 137/158/137
f 137/158/137 128/30/128 138/28/138
f 137/158/137 138/28/138 142/151/142
f 136/88/136 137/158/137 141/90/141
f 141/90/141 137/158/137 142/151/142
f 141/90/141 142/151/142 95/92/95
f 104/152/104 103/153/103 147/157/147
f 147/157/147 103/153/103 145/154/145
vt 0.692590 0.934152
f 147/157/147 145/154/145 148/159/148
vt 0.754862 0.855938
f 148/159/148 145/154/145 149/160/149
f 148/159/148 149/160/149 152/63/152
f 152/63/152 149/160/149 153/65/153
f 145/154/145 146/117/146 149/160/149
f 149/160/149 146/117/146 150/119/150
f 149/160/149 150/119/150 153/65/153
f 153/65/153 150/119/150 154/36/154
f 147/157/147 148/159/148 151/61/151
f 151/61/151 148/159/148 152/63/152
f 107/38/107 154/36/154 150/119/150
f 155/62/155 156/64/156 159/145/159
f 159/145/159 156/64/156 160/147/160
f 156/64/156 157/66/157 160/147/160
f 160/147/160 157/66/157 158/34/158
f 160/147/160 158/34/158 130/149/130
f 130/149/130 158/34/158 122/32/122
# 316 faces, 160 coords texture

# End of File
