####
#
# OBJ File Generated by Meshlab
#
####
# Object SpaceFanMarker4.obj
#
# Vertices: 136
# Faces: 268
#
####
mtllib ./SpaceFanMarker4.obj.mtl

vn 0.417134 0.300885 0.857594
v 89.070297 33.546200 96.933296
vn 0.411147 0.286746 0.865295
v 89.067101 33.461300 96.971802
vn 0.431861 0.288159 0.854670
v 89.134903 33.458401 96.933403
vn -0.021745 0.400060 0.916231
v 88.102997 33.938301 96.937599
vn -0.025815 0.294144 0.955412
v 88.086899 33.501598 97.136002
vn -0.418523 0.287792 0.861403
v 87.267601 33.533199 96.945801
vn 0.631637 0.465725 0.619787
v 90.059601 33.870899 95.942200
vn 0.640492 0.359686 0.678525
v 90.043503 33.417702 96.256699
vn 0.671949 0.365168 0.644312
v 90.368896 33.402599 95.943001
vn 0.367308 0.817778 0.443085
v 89.100304 34.459702 95.945297
vn 0.020346 0.941180 0.337292
v 88.122704 34.593498 95.951202
vn -0.485161 0.293330 0.823757
v 87.103699 33.539299 96.880402
vn -0.433926 0.771160 0.465855
v 87.136299 34.505299 95.958603
vn -0.791367 0.356180 0.496864
v 86.182503 33.570400 95.970901
vn 0.763602 0.447109 0.465838
v 91.028397 33.682098 94.954498
vn 0.762709 0.379211 0.523902
v 91.017601 33.371899 95.200104
vn 0.798885 0.393718 0.454718
v 91.197601 33.363201 94.955299
vn 0.426808 0.844276 0.324086
v 90.074799 34.414398 94.956596
vn 0.103930 0.992955 0.056913
v 89.097198 34.548199 94.962601
vn 0.039991 0.999180 -0.006397
v 88.115898 34.587502 94.969101
vn -0.292344 0.953349 0.075242
v 87.134598 34.626801 94.975700
vn -0.819881 0.363075 0.442687
v 86.114899 33.571999 95.807800
vn -0.847245 0.511017 0.145041
v 86.126801 34.004902 94.986504
vn -0.894279 0.426060 0.136887
v 85.913803 33.574902 94.990601
vn 0.798357 0.602091 0.010620
v 91.035500 34.023602 93.970200
vn 0.901222 0.432541 0.026593
v 91.414703 33.348202 93.971703
vn 0.296989 0.954848 -0.007906
v 90.071800 34.502800 93.973900
vn 0.039991 0.999180 -0.006397
v 89.090401 34.542198 93.980499
vn 0.039991 0.999180 -0.006397
v 88.109100 34.581501 93.987000
vn -0.293439 0.952380 -0.082856
v 87.127800 34.620800 93.993599
vn -0.845447 0.515646 -0.139025
v 86.120003 33.998901 94.004402
vn -0.891488 0.434243 -0.129162
v 85.906998 33.568802 94.008499
vn 0.761491 0.492366 -0.421554
v 91.017197 33.731499 92.989899
vn 0.817074 0.428946 -0.385222
v 91.239403 33.348900 92.990700
vn 0.408490 0.827351 -0.385520
v 90.061203 34.402401 92.992401
vn 0.100450 0.956481 -0.273960
v 89.083603 34.536098 92.998398
vn -0.047117 0.955563 -0.290996
v 88.102303 34.575500 93.004898
vn -0.444051 0.772107 -0.454608
v 87.115799 34.487202 93.012299
vn -0.793313 0.366159 -0.486397
v 86.162102 33.552299 93.024597
vn -0.820461 0.372990 -0.433270
v 86.096802 33.556000 93.188599
vn 0.738584 0.428777 -0.520235
v 90.999702 33.356098 92.616203
vn 0.532946 0.405048 -0.742903
v 90.389999 33.376598 92.014198
vn 0.438712 0.461491 -0.771076
v 90.029099 33.764801 92.014397
vn 0.115187 0.569106 -0.814156
v 89.059196 34.090199 92.019096
vn -0.207111 0.526454 -0.824592
v 88.075996 34.081799 92.025902
vn -0.547431 0.287450 -0.785934
v 87.087097 33.508999 92.036301
vn -0.551660 0.287605 -0.782914
v 87.070198 33.509701 92.046097
vn 0.397051 0.397989 -0.827016
v 90.012497 33.390301 91.779404
vn 0.064313 0.397608 -0.915299
v 89.029999 33.428501 91.617302
vn -0.231682 0.369872 -0.899732
v 88.049103 33.468201 91.681702
vn 0.216481 -0.110411 0.970023
v 88.980499 31.264400 97.186401
vn 0.433206 -0.073728 0.898274
v 89.641800 31.236300 96.943497
vn -0.073083 -0.129884 0.988832
v 87.999603 31.304001 97.248901
vn -0.468964 0.162059 0.868222
v 87.079803 32.931198 96.950798
vn -0.410212 -0.084957 0.908025
v 87.016899 31.342199 97.061699
vn -0.453555 -0.075736 0.888004
v 86.862900 31.347700 96.961998
vn 0.720052 -0.013860 0.693782
v 90.938797 31.280600 95.952003
vn 0.718109 -0.024289 0.695506
v 90.934898 31.178400 95.978699
vn 0.720357 -0.024394 0.693175
v 90.960701 31.177200 95.952499
vn 0.530772 -0.049570 0.846064
v 89.959198 31.222700 96.802299
vn -0.804537 0.304500 0.509902
v 86.106903 33.344501 95.972900
vn -0.736793 0.020420 0.675811
v 86.030602 31.377100 96.357697
vn -0.825484 0.048269 0.562358
v 85.713097 31.387501 95.987602
vn 0.896430 -0.033049 0.441952
v 91.698700 31.141300 94.965401
vn -0.964742 0.140045 0.222846
v 85.386299 31.394300 95.007599
vn 0.996732 -0.024289 0.077043
v 91.907402 31.250200 93.981102
vn 0.991834 -0.038919 0.121453
v 91.903297 31.127600 94.103996
vn 0.996171 -0.039371 0.078064
v 91.931602 31.125700 93.981697
vn -0.978549 0.177159 -0.105146
v 85.327400 31.390301 94.025803
vn 0.998280 -0.040228 -0.042640
v 91.899597 31.124399 93.568604
vn 0.971320 -0.041299 -0.234164
v 91.848396 31.122801 93.000099
vn -0.802884 0.324511 -0.500070
v 86.087997 33.363899 93.026299
vn -0.826510 0.104142 -0.553204
v 85.588997 31.373600 93.042000
vn 0.654531 0.143785 -0.742237
v 90.950401 32.225498 92.017403
vn 0.724765 -0.061028 -0.686288
v 91.335999 31.136999 92.021400
vn -0.552368 0.272444 -0.787822
v 87.067596 33.444901 92.036797
vn -0.561507 -0.072319 -0.824306
v 86.733498 31.321400 92.052200
vn -0.705789 0.035293 -0.707542
v 86.004601 31.354099 92.604897
vn 0.558097 -0.065856 -0.827158
v 90.904701 31.151699 91.617699
vn 0.186490 -0.102031 -0.977144
v 89.920799 31.188700 91.249100
vn -0.081793 -0.108936 -0.990678
v 88.939003 31.227699 91.201401
vn -0.362920 -0.108895 -0.925436
v 87.958900 31.268101 91.379898
vn -0.542194 -0.088237 -0.835608
v 86.980904 31.310301 91.860497
vn 0.194084 -0.204018 0.959535
v 88.947601 30.482500 96.952904
vn -0.074414 -0.241924 0.967438
v 87.961197 30.393600 96.960297
vn -0.400453 -0.116524 0.908878
v 87.002502 30.998199 96.963203
vn 0.718428 -0.034836 0.694728
v 90.930603 31.075800 95.953300
vn 0.522481 -0.431921 0.735158
v 90.108803 29.009600 95.971703
vn 0.448034 -0.445401 0.775167
v 89.866699 29.020500 96.155098
vn 0.105636 -0.501856 0.858476
v 88.886902 29.061199 96.385803
vn -0.049102 -0.510391 0.858539
v 87.905602 29.100500 96.392403
vn -0.254508 -0.450518 0.855722
v 86.923798 29.139500 96.341202
vn -0.640495 -0.245076 0.727807
v 85.949203 29.405199 95.998100
vn -0.583038 -0.309717 0.751094
v 86.052200 29.172100 95.998802
vn 0.724985 -0.435431 0.533662
v 90.841599 28.975500 95.228203
vn 0.765098 -0.450458 0.460122
v 91.021599 28.966801 94.983398
vn -0.624408 -0.297077 0.722398
v 85.939499 29.176100 95.917801
vn -0.877241 -0.224556 0.424290
v 85.333504 29.194700 95.021400
vn 0.995524 -0.054461 0.077236
v 91.897499 31.003599 93.982697
vn 0.864108 -0.503302 0.002057
v 91.238800 28.951799 93.999802
vn -0.980385 -0.170249 -0.099301
v 85.124603 29.196699 94.040703
vn 0.659763 -0.544346 -0.518074
v 90.979599 28.955900 93.019402
vn -0.555830 -0.284123 -0.781234
v 85.681900 29.168100 93.054802
vn 0.569391 -0.559686 -0.602118
v 90.825104 28.960899 92.836899
vn 0.538783 -0.235912 -0.808739
v 90.874298 30.324499 92.029602
vn 0.099920 -0.602041 -0.792189
v 89.841599 28.998301 92.535896
vn 0.136277 -0.437890 -0.888640
v 89.870796 29.810400 92.039703
vn -0.042551 -0.612851 -0.789052
v 88.860298 29.037600 92.542503
vn -0.041878 -0.474281 -0.879377
v 88.887001 29.788601 92.046600
vn -0.105147 -0.584358 -0.804655
v 87.879097 29.077101 92.572502
vn -0.229824 -0.398562 -0.887879
v 87.910103 29.938601 92.052498
vn -0.214454 -0.486087 -0.847189
v 86.898499 29.117100 92.684196
vn -0.492700 -0.152262 -0.856775
v 86.959900 30.754400 92.054100
vn -0.451967 -0.317151 -0.833751
v 85.918701 29.157801 92.915398
vn 0.457357 -0.495042 0.738754
v 89.852898 28.707701 95.975304
vn 0.108937 -0.644581 0.756735
v 88.857697 28.399500 95.984100
vn -0.040314 -0.648938 0.759773
v 87.876404 28.438900 95.990601
vn -0.245781 -0.580338 0.776402
v 86.896896 28.525801 95.996902
vn 0.725667 -0.500712 0.471906
v 90.827499 28.662399 94.986603
vn 0.351220 -0.853327 0.385328
v 89.818398 28.008699 94.997597
vn 0.024859 -0.964251 0.263823
v 88.833298 27.953600 95.004799
vn -0.036839 -0.963616 0.264739
v 87.851997 27.992901 95.011398
vn -0.176880 -0.943326 0.280800
v 86.870598 28.032200 95.017899
vn -0.652846 -0.634484 0.413789
v 85.899101 28.317900 95.022903
vn 0.747098 -0.663890 -0.033091
v 90.806801 28.308901 94.006798
vn 0.214255 -0.958378 -0.188695
v 89.807800 27.908199 94.016098
vn -0.040423 -0.966783 -0.252380
v 88.826500 27.947599 94.022697
vn -0.040423 -0.966783 -0.252380
v 87.845100 27.986900 94.029297
vn -0.120673 -0.955560 -0.268967
v 86.863800 28.026199 94.035797
vn -0.586631 -0.773055 -0.241349
v 85.887901 28.200600 94.041496
vn 0.600150 -0.576476 -0.554523
v 90.817299 28.736601 93.021896
vn 0.137713 -0.692387 -0.708262
v 89.818604 28.342199 93.031197
vn -0.032830 -0.700462 -0.712935
v 88.837303 28.381500 93.037804
vn -0.052771 -0.689355 -0.722499
v 87.855904 28.420799 93.044296
vn -0.155045 -0.614584 -0.773465
v 86.876503 28.507799 93.050598
vn -0.453098 -0.374874 -0.808809
v 85.907898 28.863600 93.055099
# 136 vertices, 0 vertices normals


usemtl material_0
vt 0.460579 0.827421
vt 0.468467 0.840077
vt 0.468721 0.827201
f 3/1/3 1/2/1 2/3/2
vt 0.574164 0.824867
f 2/3/2 1/2/1 5/4/5
vt 0.569368 0.493997
f 2/3/2 5/4/5 53/5/53
vt 0.667421 0.492307
f 53/5/53 5/4/5 55/6/55
vt 0.672300 0.440832
f 53/5/53 55/6/55 86/7/86
vt 0.685133 0.492165
f 86/7/86 55/6/55 56/8/56
vt 0.782641 0.491532
f 86/7/86 56/8/56 62/9/62
vt 0.677174 0.823289
f 62/9/62 56/8/56 12/10/12
vt 0.807477 0.823042
f 62/9/62 12/10/12 14/11/14
vt 0.740860 0.971112
f 14/11/14 12/10/12 13/12/13
vt 0.824977 0.823190
f 14/11/14 13/12/13 22/13/22
vt 0.904913 0.890551
f 22/13/22 13/12/13 23/14/23
vt 0.911234 0.824276
f 22/13/22 23/14/23 24/15/24
vt 0.982679 0.826041
f 24/15/24 23/14/23 32/16/32
vt 0.923954 0.492665
f 24/15/24 32/16/32 65/17/65
vt 0.982871 0.494323
f 65/17/65 32/16/32 69/18/69
vt 0.924984 0.162049
f 65/17/65 69/18/69 98/19/98
vt 0.980907 0.163392
f 98/19/98 69/18/69 101/20/101
vt 0.972844 0.020051
f 98/19/98 101/20/101 130/21/130
vt 0.864186 0.122473
f 130/21/130 101/20/101 136/22/136
vt 0.954954 0.001780
f 130/21/130 136/22/136 129/23/129
vt 0.798595 0.076913
f 129/23/129 136/22/136 135/24/135
vt 0.887765 0.003834
f 129/23/129 135/24/135 128/25/128
vt 0.659394 0.071791
f 128/25/128 135/24/135 134/26/134
vt 0.204936 0.005888
f 128/25/128 134/26/134 127/27/127
vt 0.419552 0.073845
f 127/27/127 134/26/134 133/28/133
vt 0.061059 0.007926
f 127/27/127 133/28/133 126/29/126
vt 0.241609 0.075899
f 126/29/126 133/28/133 132/30/132
vt 0.035555 0.076173
f 126/29/126 132/30/132 125/31/125
vt 0.158186 0.143197
f 125/31/125 132/30/132 131/32/131
vt 0.149637 0.177432
f 125/31/125 131/32/131 102/33/102
vt 0.177368 0.177442
f 102/33/102 131/32/131 104/34/104
vt 0.219072 0.510468
f 102/33/102 104/34/104 75/35/75
vt 0.246514 0.384759
f 75/35/75 104/34/104 105/36/105
vt 0.273873 0.510311
f 75/35/75 105/36/105 79/37/79
vt 0.373252 0.508937
f 79/37/79 105/36/105 80/38/80
vt 0.349829 0.838652
f 79/37/79 80/38/80 48/39/48
vt 0.472254 0.506985
f 48/39/48 80/38/80 81/40/81
vt 0.470664 0.836894
f 48/39/48 81/40/81 49/41/49
vt 0.579126 0.504628
f 49/41/49 81/40/81 82/42/82
vt 0.592789 0.834742
f 49/41/49 82/42/82 50/43/50
vt 0.699214 0.501716
f 50/43/50 82/42/82 83/44/83
vt 0.716546 0.822320
f 50/43/50 83/44/83 76/45/76
vt 0.733607 0.500848
f 76/45/76 83/44/83 77/46/77
vt 0.717394 0.832042
f 76/45/76 77/46/77 47/47/47
vt 0.869814 0.828368
f 47/47/47 77/46/77 39/48/39
vt 0.815117 0.976438
f 47/47/47 39/48/39 38/49/38
vt 0.981922 0.892331
f 38/49/38 39/48/39 31/50/31
vt 0.971907 0.993854
f 38/49/38 31/50/31 30/51/30
vt 0.856838 0.992074
f 30/51/30 31/50/31 21/52/21
vt 0.732441 0.994127
f 30/51/30 21/52/21 20/53/20
vt 0.622170 0.992347
f 20/53/20 21/52/21 11/54/11
vt 0.455129 0.980185
f 20/53/20 11/54/11 10/55/10
f 10/55/10 11/54/11 1/2/1
vt 0.305934 0.899573
f 10/55/10 1/2/1 7/56/7
f 7/56/7 1/2/1 3/1/3
vt 0.327938 0.830544
f 7/56/7 3/1/3 8/57/8
vt 0.391488 0.497964
f 8/57/8 3/1/3 52/58/52
vt 0.353288 0.498882
f 8/57/8 52/58/52 60/59/60
vt 0.463172 0.379183
f 60/59/60 52/58/52 84/60/84
vt 0.450852 0.166940
f 60/59/60 84/60/84 90/61/90
vt 0.575699 0.357843
f 90/61/90 84/60/84 85/62/85
vt 0.593666 0.164887
f 90/61/90 85/62/85 91/63/91
f 91/63/91 85/62/85 86/7/86
vt 0.710826 0.162945
f 91/63/91 86/7/86 92/64/92
f 92/64/92 86/7/86 62/9/62
vt 0.812152 0.195901
f 92/64/92 62/9/62 93/65/93
vt 0.827692 0.491557
f 93/65/93 62/9/62 63/66/63
vt 0.819208 0.161660
f 93/65/93 63/66/63 97/67/97
f 97/67/97 63/66/63 98/19/98
vt 0.909942 0.035014
f 97/67/97 98/19/98 124/68/124
f 124/68/124 98/19/98 130/21/130
vt 0.862638 0.000000
f 124/68/124 130/21/130 123/69/123
f 123/69/123 130/21/130 129/23/129
vt 0.727756 0.002054
f 123/69/123 129/23/129 122/70/122
f 122/70/122 129/23/129 128/25/128
vt 0.363063 0.004108
f 122/70/122 128/25/128 121/71/121
f 121/71/121 128/25/128 127/27/127
vt 0.160739 0.020363
f 121/71/121 127/27/127 120/72/120
f 120/72/120 127/27/127 126/29/126
vt 0.098166 0.126670
f 120/72/120 126/29/126 119/73/119
f 119/73/119 126/29/126 125/31/125
vt 0.029754 0.176182
f 119/73/119 125/31/125 100/74/100
f 100/74/100 125/31/125 102/33/102
vt 0.115965 0.509753
f 100/74/100 102/33/102 71/75/71
f 71/75/71 102/33/102 75/35/75
vt 0.142889 0.838984
f 71/75/71 75/35/75 34/76/34
vt 0.246704 0.670740
f 34/76/34 75/35/75 74/77/74
vt 0.195179 0.839169
f 34/76/34 74/77/74 41/78/41
vt 0.296986 0.838993
f 41/78/41 74/77/74 42/79/42
vt 0.336026 0.894343
f 41/78/41 42/79/42 43/80/43
f 43/80/43 42/79/42 48/39/48
vt 0.465908 0.935328
f 43/80/43 48/39/48 44/81/44
f 44/81/44 48/39/48 49/41/49
vt 0.607976 0.926099
f 44/81/44 49/41/49 45/82/45
f 45/82/45 49/41/49 50/43/50
vt 0.715144 0.832100
f 45/82/45 50/43/50 46/83/46
f 46/83/46 50/43/50 76/45/76
f 46/83/46 76/45/76 47/47/47
vt 0.579861 0.891097
f 5/4/5 1/2/1 4/84/4
f 4/84/4 1/2/1 11/54/11
f 4/84/4 11/54/11 13/12/13
f 13/12/13 11/54/11 21/52/21
f 13/12/13 21/52/21 23/14/23
f 23/14/23 21/52/21 31/50/31
f 23/14/23 31/50/31 32/16/32
vt 0.889397 0.827938
f 32/16/32 31/50/31 40/85/40
vt 0.885237 0.496672
f 32/16/32 40/85/40 73/86/73
vt 0.872395 0.799486
f 73/86/73 40/85/40 72/87/72
vt 0.828145 0.498323
f 73/86/73 72/87/72 78/88/78
f 78/88/78 72/87/72 39/48/39
f 78/88/78 39/48/39 77/46/77
vt 0.659713 0.823516
f 5/4/5 4/84/4 6/89/6
f 6/89/6 4/84/4 12/10/12
vt 0.673365 0.731626
f 6/89/6 12/10/12 54/90/54
f 54/90/54 12/10/12 56/8/56
f 54/90/54 56/8/56 55/6/55
vt 0.268530 0.831782
f 7/56/7 8/57/8 9/91/9
vt 0.209043 0.517861
f 9/91/9 8/57/8 57/92/57
vt 0.137941 0.834488
f 9/91/9 57/92/57 16/93/16
vt 0.207065 0.502517
f 16/93/16 57/92/57 59/94/59
vt 0.100409 0.835320
f 16/93/16 59/94/59 17/95/17
vt 0.077748 0.505845
f 17/95/17 59/94/59 64/96/64
vt 0.023998 0.837563
f 17/95/17 64/96/64 26/97/26
vt 0.022414 0.526620
f 26/97/26 64/96/64 66/98/66
vt 0.062555 0.508823
f 26/97/26 66/98/66 70/99/70
vt 0.022369 0.508127
f 70/99/70 66/98/66 68/100/68
vt 0.022683 0.489521
f 70/99/70 68/100/68 99/101/99
vt 0.010549 0.507842
f 99/101/99 68/100/68 67/102/67
f 99/101/99 67/102/67 100/74/100
f 100/74/100 67/102/67 64/96/64
vt 0.091793 0.173937
f 100/74/100 64/96/64 96/103/96
f 96/103/96 64/96/64 59/94/59
vt 0.208629 0.487052
f 96/103/96 59/94/59 87/104/87
vt 0.211109 0.502415
f 87/104/87 59/94/59 58/105/58
vt 0.266119 0.170228
f 87/104/87 58/105/58 88/106/88
vt 0.307898 0.169396
f 88/106/88 58/105/58 89/107/89
vt 0.292059 0.122835
f 88/106/88 89/107/89 115/108/115
vt 0.438225 0.068505
f 115/108/115 89/107/89 116/109/116
f 115/108/115 116/109/116 121/71/121
f 121/71/121 116/109/116 122/70/122
f 12/10/12 4/84/4 13/12/13
vt 0.108863 0.881819
f 17/95/17 15/110/15 16/93/16
f 16/93/16 15/110/15 9/91/9
f 9/91/9 15/110/15 7/56/7
vt 0.184781 0.984018
f 7/56/7 15/110/15 18/111/18
vt 0.406675 0.996180
f 7/56/7 18/111/18 19/112/19
vt 0.194631 0.997960
f 19/112/19 18/111/18 28/113/28
vt 0.932523 0.995907
f 19/112/19 28/113/28 29/114/29
vt 0.685138 0.997688
f 29/114/29 28/113/28 37/115/37
f 29/114/29 37/115/37 38/49/38
f 38/49/38 37/115/37 45/82/45
f 38/49/38 45/82/45 46/83/46
f 7/56/7 19/112/19 10/55/10
f 10/55/10 19/112/19 20/53/20
vt 0.026908 0.935876
f 17/95/17 25/116/25 15/110/15
vt 0.045215 1.000000
f 15/110/15 25/116/25 27/117/27
f 15/110/15 27/117/27 18/111/18
f 18/111/18 27/117/27 28/113/28
f 17/95/17 26/97/26 25/116/25
vt 0.155579 0.894616
f 25/116/25 26/97/26 33/118/33
vt 0.242392 0.987579
f 25/116/25 33/118/33 35/119/35
f 35/119/35 33/118/33 43/80/43
f 35/119/35 43/80/43 44/81/44
f 19/112/19 29/114/29 20/53/20
f 20/53/20 29/114/29 30/51/30
f 26/97/26 34/76/34 33/118/33
f 33/118/33 34/76/34 41/78/41
f 33/118/33 41/78/41 43/80/43
f 25/116/25 35/119/35 27/117/27
vt 0.436837 0.999726
f 27/117/27 35/119/35 36/120/36
f 27/117/27 36/120/36 28/113/28
f 28/113/28 36/120/36 37/115/37
f 30/51/30 29/114/29 38/49/38
f 31/50/31 39/48/39 40/85/40
f 40/85/40 39/48/39 72/87/72
f 35/119/35 44/81/44 36/120/36
f 36/120/36 44/81/44 45/82/45
f 36/120/36 45/82/45 37/115/37
f 46/83/46 47/47/47 38/49/38
vt 0.467162 0.496158
f 52/58/52 2/3/2 51/121/51
f 51/121/51 2/3/2 53/5/53
f 51/121/51 53/5/53 85/62/85
f 85/62/85 53/5/53 86/7/86
f 3/1/3 2/3/2 52/58/52
f 54/90/54 55/6/55 6/89/6
f 6/89/6 55/6/55 5/4/5
f 59/94/59 57/92/57 58/105/58
f 58/105/58 57/92/57 8/57/8
f 58/105/58 8/57/8 60/59/60
vt 0.811210 0.788519
f 62/9/62 14/11/14 61/122/61
f 61/122/61 14/11/14 22/13/22
f 61/122/61 22/13/22 24/15/24
f 62/9/62 61/122/61 63/66/63
f 63/66/63 61/122/61 24/15/24
f 63/66/63 24/15/24 65/17/65
f 68/100/68 66/98/66 67/102/67
f 67/102/67 66/98/66 64/96/64
f 26/97/26 70/99/70 71/75/71
f 71/75/71 70/99/70 99/101/99
f 71/75/71 99/101/99 100/74/100
f 71/75/71 34/76/34 26/97/26
f 32/16/32 73/86/73 69/18/69
f 69/18/69 73/86/73 101/20/101
f 75/35/75 79/37/79 74/77/74
f 74/77/74 79/37/79 42/79/42
f 42/79/42 79/37/79 48/39/48
f 52/58/52 51/121/51 84/60/84
f 84/60/84 51/121/51 85/62/85
f 58/105/58 60/59/60 89/107/89
f 89/107/89 60/59/60 90/61/90
f 89/107/89 90/61/90 116/109/116
vt 0.613400 0.066467
f 116/109/116 90/61/90 117/123/117
f 116/109/116 117/123/117 122/70/122
f 122/70/122 117/123/117 123/69/123
vt 0.805777 0.161745
f 92/64/92 93/65/93 94/124/94
f 94/124/94 93/65/93 97/67/97
f 94/124/94 97/67/97 124/68/124
vt 0.128468 0.173106
f 96/103/96 87/104/87 95/125/95
f 95/125/95 87/104/87 88/106/88
f 95/125/95 88/106/88 115/108/115
f 98/19/98 63/66/63 65/17/65
vt 0.874924 0.166351
f 101/20/101 73/86/73 103/126/103
f 103/126/103 73/86/73 78/88/78
vt 0.851261 0.167108
f 103/126/103 78/88/78 114/127/114
vt 0.759457 0.169565
f 114/127/114 78/88/78 112/128/112
f 114/127/114 112/128/112 135/24/135
f 135/24/135 112/128/112 134/26/134
vt 0.333037 0.299453
vt 0.295231 0.175942
f 107/129/107 105/36/105 106/130/106
f 106/130/106 105/36/105 104/34/104
f 106/130/106 104/34/104 131/32/131
vt 0.458202 0.288208
vt 0.444028 0.173889
f 109/131/109 107/129/107 108/132/108
f 108/132/108 107/129/107 106/130/106
f 108/132/108 106/130/106 132/30/132
f 132/30/132 106/130/106 131/32/131
vt 0.598149 0.302808
vt 0.622427 0.171801
f 111/133/111 109/131/109 110/134/110
f 110/134/110 109/131/109 108/132/108
f 110/134/110 108/132/108 133/28/133
f 133/28/133 108/132/108 132/30/132
vt 0.710814 0.417569
f 113/135/113 111/133/111 112/128/112
f 112/128/112 111/133/111 110/134/110
f 112/128/112 110/134/110 134/26/134
f 134/26/134 110/134/110 133/28/133
f 77/46/77 113/135/113 78/88/78
f 78/88/78 113/135/113 112/128/112
f 105/36/105 107/129/107 80/38/80
f 80/38/80 107/129/107 81/40/81
f 107/129/107 109/131/109 81/40/81
f 81/40/81 109/131/109 82/42/82
f 109/131/109 111/133/111 82/42/82
f 82/42/82 111/133/111 83/44/83
f 111/133/111 113/135/113 83/44/83
f 83/44/83 113/135/113 77/46/77
f 90/61/90 91/63/91 117/123/117
vt 0.739508 0.071573
f 117/123/117 91/63/91 118/136/118
f 117/123/117 118/136/118 123/69/123
f 123/69/123 118/136/118 124/68/124
f 91/63/91 92/64/92 118/136/118
f 118/136/118 92/64/92 94/124/94
f 118/136/118 94/124/94 124/68/124
f 96/103/96 95/125/95 119/73/119
f 119/73/119 95/125/95 115/108/115
f 119/73/119 115/108/115 120/72/120
f 120/72/120 115/108/115 121/71/121
f 96/103/96 119/73/119 100/74/100
f 101/20/101 103/126/103 136/22/136
f 136/22/136 103/126/103 114/127/114
f 136/22/136 114/127/114 135/24/135
# 268 faces, 136 coords texture

# End of File
